<?xml version="1.0" encoding="UTF-8" standalone="no"?>
<svg width="64px" height="50px" viewBox="0 0 64 50" version="1.1" xmlns="http://www.w3.org/2000/svg" xmlns:xlink="http://www.w3.org/1999/xlink" xmlns:sketch="http://www.bohemiancoding.com/sketch/ns">
    <!-- Generator: Sketch 3.3.1 (12002) - http://www.bohemiancoding.com/sketch -->
    <title>frank - relish - approve state</title>
    <desc>Created with Sketch.</desc>
    <defs></defs>
    <g id="Page-1" stroke="none" stroke-width="1" fill="none" fill-rule="evenodd" sketch:type="MSPage">
        <g id="64x64---Franfurter-Variations" sketch:type="MSArtboardGroup" transform="translate(-14.000000, -18.000000)">
            <g id="frank---relish---approve-state" sketch:type="MSLayerGroup" transform="translate(14.000000, 18.000000)">
                <path d="M55.2,12.5 L8.8,12.5 L8.8,7.7 C8.8,3.4 12.2,8.8817842e-16 16.5,8.8817842e-16 L47.4,8.8817842e-16 C51.7,8.8817842e-16 55.1,3.4 55.1,7.7 L55.1,12.5 L55.2,12.5 Z" id="top-bun" fill="#BD9268" sketch:type="MSShapeGroup"></path>
                <path d="M55.3,33.8 L8.7,33.8 C3.9,33.8 0,29.8 0,25 L0,25 C0,20.2 3.9,16.3 8.7,16.3 L55.2,16.3 C60,16.3 63.9,20.2 63.9,25 L63.9,25 C64,29.8 60.1,33.8 55.3,33.8 L55.3,33.8 Z" id="hotdog" fill="#7A3318" sketch:type="MSShapeGroup"></path>
                <path d="M47.5,50 L16.5,50 C12.2,50 8.8,46.6 8.8,42.3 L8.8,37.5 L55.1,37.5 L55.1,42.3 C55.2,46.6 51.7,50 47.5,50 L47.5,50 Z" id="bottom-bun" fill="#BD9268" sketch:type="MSShapeGroup"></path>
                <path d="M52.1,27.6 C51.1,27.6 50.1,27.3 49.2,26.6 L48.1,25.7 C47.5,25.2 46.6,25.2 46,25.7 L44.9,26.6 C43.2,27.9 40.8,27.9 39.1,26.6 L38,25.7 C37.4,25.2 36.5,25.2 35.9,25.7 L34.8,26.6 C33.1,27.9 30.7,28 29,26.6 L27.9,25.7 C27.3,25.2 26.4,25.2 25.8,25.7 L24.7,26.6 C23,28 20.7,28 19,26.6 L17.9,25.7 C17.3,25.2 16.4,25.2 15.8,25.7 L14.7,26.6 C13,28 10.6,28 8.9,26.6 L8.3,26.2 C7.7,25.7 7.5,24.7 8.1,24.1 C8.6,23.5 9.6,23.3 10.2,23.9 L10.8,24.3 C11.4,24.8 12.3,24.8 12.9,24.3 L14,23.4 C15.7,22 18.1,22 19.8,23.4 L20.9,24.3 C21.5,24.8 22.4,24.8 23,24.3 L24.1,23.4 C25.8,22.1 28.2,22 29.9,23.4 L31,24.3 C31.6,24.8 32.5,24.8 33.1,24.3 L34.2,23.4 C35.9,22.1 38.3,22.1 40,23.4 L41.1,24.3 C41.7,24.8 42.6,24.8 43.2,24.3 L44.3,23.4 C46,22.1 48.4,22.1 50.1,23.4 L51.2,24.3 C51.8,24.8 52.7,24.8 53.3,24.3 L53.9,23.9 C54.5,23.4 55.5,23.5 56,24.1 C56.5,24.7 56.4,25.7 55.8,26.2 L55,26.6 C54.2,27.3 53.2,27.6 52.1,27.6 L52.1,27.6 Z" id="relish" fill="#7ED321" sketch:type="MSShapeGroup"></path>
            </g>
        </g>
    </g>
</svg>